<svg width="54" height="53" viewBox="0 0 54 53" fill="none" xmlns="http://www.w3.org/2000/svg">
<g clip-path="url(#clip0_10_315)">
<path d="M27 0C12.3645 0 0.5 11.8645 0.5 26.5C0.5 41.1355 12.3645 53 27 53C41.6355 53 53.5 41.1355 53.5 26.5C53.5 11.8645 41.6355 0 27 0ZM27 5.75805C38.4555 5.75805 47.7387 15.0474 47.7387 26.5C47.7387 37.9526 38.4555 47.2387 27 47.2387C15.5445 47.2387 6.26128 37.9526 6.26128 26.5C6.26132 15.0474 15.5445 5.75805 27 5.75805ZM37.1542 13.9164L21.7951 29.2787L16.8134 24.2971L11.9255 29.1817L16.9072 34.1634L21.8274 39.0836L26.7121 34.1957L42.0744 18.8366L37.1542 13.9164Z" fill="#001AAD"/>
</g>
<defs>
<clipPath id="clip0_10_315">
<rect width="53" height="53" fill="white" transform="translate(0.5)"/>
</clipPath>
</defs>
</svg>
