<svg width="106" height="108" viewBox="0 0 106 108" fill="none" xmlns="http://www.w3.org/2000/svg">
<path fill-rule="evenodd" clip-rule="evenodd" d="M59.0627 19.9374C59.0627 9.06441 50.2482 0.250122 39.3752 0.250122L38.2949 0.279126C27.9242 0.839956 19.6876 9.42696 19.6876 19.9374C19.6876 30.8107 28.5021 39.625 39.3752 39.625L40.4554 39.5958C50.8262 39.0352 59.0627 30.4482 59.0627 19.9374ZM45.0001 84.6251C45.0001 90.7724 46.6435 96.536 49.5152 101.5H0.000244141V81.2501C0.000244141 64.8938 12.569 51.557 28.3141 50.9004L29.5312 50.8751H49.2188C54.343 50.8751 59.1624 52.2175 63.3627 54.5789C52.4601 60.1738 45.0001 71.5283 45.0001 84.6251ZM62.2186 107.379L78.7501 97.2814L95.2815 107.379L90.787 88.5359L105.499 75.934L86.1893 74.386L78.7501 56.5L71.3108 74.386L52.0016 75.934L66.7132 88.5359L62.2186 107.379Z" fill="#001AAD"/>
</svg>
