<svg width="111" height="65" viewBox="0 0 111 65" fill="none" xmlns="http://www.w3.org/2000/svg">
<path fill-rule="evenodd" clip-rule="evenodd" d="M55.4062 42.3438C51.2686 42.35 47.2214 41.1327 43.7738 38.845L19.0069 63.6063C18.1631 64.45 17.0944 64.8438 16.0256 64.8438C14.9569 64.8438 13.8881 64.45 13.0444 63.6063C12.2611 62.8116 11.8221 61.7407 11.8221 60.625C11.8221 59.5093 12.2611 58.4384 13.0444 57.6437L37.8112 32.8825C35.7117 29.7031 34.5122 26.0144 34.3402 22.2081C34.1682 18.4019 35.03 14.6201 36.8343 11.2642C38.6386 7.90836 41.3179 5.10368 44.5878 3.14793C47.8577 1.19219 51.5961 0.15838 55.4062 0.15625C67.05 0.15625 76.5 9.60625 76.5 21.25C76.5 32.8937 67.05 42.3438 55.4062 42.3438ZM55.4062 8.59375C48.4313 8.59375 42.75 14.275 42.75 21.25C42.75 28.225 48.4313 33.9062 55.4062 33.9062C62.3812 33.9062 68.0625 28.225 68.0625 21.25C68.0625 14.275 62.3812 8.59375 55.4062 8.59375ZM84.9375 21.3063C84.9375 23.6125 86.85 25.525 89.1562 25.525V25.5813C91.4625 25.5813 93.375 23.6688 93.375 21.3063C93.375 20.1874 92.9305 19.1143 92.1394 18.3231C91.3482 17.532 90.2751 17.0875 89.1562 17.0875C88.0374 17.0875 86.9643 17.532 86.1731 18.3231C85.382 19.1143 84.9375 20.1874 84.9375 21.3063ZM101.812 21.25C101.812 23.5562 103.725 25.4688 106.031 25.4688V25.525C108.338 25.525 110.25 23.6125 110.25 21.25C110.25 20.1311 109.806 19.0581 109.014 18.2669C108.223 17.4757 107.15 17.0312 106.031 17.0312C104.912 17.0312 103.839 17.4757 103.048 18.2669C102.257 19.0581 101.812 20.1311 101.812 21.25ZM21.6562 25.5813C19.35 25.5813 17.4375 23.6688 17.4375 21.3625C17.4375 19.0563 19.35 17.1438 21.6562 17.1438C23.9625 17.1438 25.875 19 25.875 21.3063C25.875 23.6688 23.9625 25.5813 21.6562 25.5813ZM4.78125 25.525C2.475 25.525 0.5625 23.6125 0.5625 21.3063C0.5625 19 2.475 17.0875 4.78125 17.0875C7.0875 17.0875 9 18.9438 9 21.3063C9 23.6688 7.0875 25.5813 4.78125 25.5813V25.525ZM51.1875 21.25C51.1875 23.5562 53.1 25.4688 55.4062 25.4688V25.525C57.7125 25.525 59.625 23.6125 59.625 21.25C59.625 20.1311 59.1805 19.0581 58.3894 18.2669C57.5982 17.4757 56.5251 17.0312 55.4062 17.0312C54.2874 17.0312 53.2143 17.4757 52.4231 18.2669C51.632 19.0581 51.1875 20.1311 51.1875 21.25Z" fill="#001AAD"/>
</svg>
