<svg width="76" height="76" viewBox="0 0 76 76" fill="none" xmlns="http://www.w3.org/2000/svg">
<path d="M35 38C35 38.7956 35.3161 39.5587 35.8787 40.1213C36.4413 40.6839 37.2044 41 38 41C38.7956 41 39.5587 40.6839 40.1213 40.1213C40.6839 39.5587 41 38.7956 41 38C41 37.2044 40.6839 36.4413 40.1213 35.8787C39.5587 35.3161 38.7956 35 38 35C37.2044 35 36.4413 35.3161 35.8787 35.8787C35.3161 36.4413 35 37.2044 35 38ZM47.4999 38C47.4999 38.7956 47.816 39.5587 48.3786 40.1213C48.9412 40.6839 49.7042 41 50.4998 41C51.2955 41 52.0585 40.6839 52.6211 40.1213C53.1837 39.5587 53.4998 38.7956 53.4998 38C53.4998 37.2044 53.1837 36.4413 52.6211 35.8787C52.0585 35.3161 51.2955 35 50.4998 35C49.7042 35 48.9412 35.3161 48.3786 35.8787C47.816 36.4413 47.4999 37.2044 47.4999 38ZM22.5002 38C22.5002 38.7956 22.8163 39.5587 23.3789 40.1213C23.9415 40.6839 24.7045 41 25.5002 41C26.2958 41 27.0589 40.6839 27.6215 40.1213C28.1841 39.5587 28.5001 38.7956 28.5001 38C28.5001 37.2044 28.1841 36.4413 27.6215 35.8787C27.0589 35.3161 26.2958 35 25.5002 35C24.7045 35 23.9415 35.3161 23.3789 35.8787C22.8163 36.4413 22.5002 37.2044 22.5002 38ZM63.8247 27.15C62.4122 23.7937 60.3872 20.7812 57.806 18.1938C55.2428 15.6213 52.2 13.5765 48.8499 12.175C45.4124 10.7313 41.7625 10 38 10H37.875C34.0876 10.0188 30.4188 10.7688 26.9689 12.2438C23.6475 13.6596 20.6332 15.708 18.094 18.275C15.5378 20.8562 13.5316 23.8563 12.1441 27.2C10.7066 30.6625 9.9816 34.3437 10.0004 38.1312C10.0216 42.4717 11.0484 46.7482 13.0003 50.625V60.125C13.0003 60.8875 13.3032 61.6188 13.8424 62.1579C14.3815 62.6971 15.1128 63 15.8753 63H25.3814C29.2582 64.9519 33.5346 65.9788 37.875 66H38.0063C41.75 66 45.3812 65.275 48.7999 63.8563C52.1331 62.4715 55.1646 60.4505 57.7248 57.9062C60.306 55.35 62.3372 52.3625 63.7559 49.0312C65.2309 45.5812 65.9809 41.9125 65.9997 38.125C66.0184 34.3188 65.2809 30.625 63.8247 27.15ZM54.381 54.525C49.9999 58.8625 44.1874 61.25 38 61.25H37.8938C34.1251 61.2313 30.3813 60.2938 27.0751 58.5312L26.5501 58.25H17.7503V49.45L17.469 48.925C15.7065 45.6187 14.769 41.875 14.7503 38.1063C14.7253 31.875 17.1065 26.025 21.4752 21.6187C25.8377 17.2125 31.6688 14.775 37.9 14.75H38.0063C41.1312 14.75 44.1624 15.3562 47.0186 16.5562C49.8061 17.725 52.3061 19.4062 54.456 21.5562C56.5998 23.7 58.2873 26.2062 59.456 28.9937C60.6685 31.8813 61.2747 34.9438 61.2622 38.1063C61.2247 44.3312 58.781 50.1625 54.381 54.525Z" fill="#001AAD"/>
</svg>
