<svg width="30" height="31" viewBox="0 0 30 31" fill="none" xmlns="http://www.w3.org/2000/svg">
<path d="M17.1429 4.23883C17.5313 3.8464 18.0581 3.62595 18.6074 3.62595C19.1567 3.62595 19.6835 3.8464 20.0719 4.23883L29.3935 13.6586C29.7818 14.0512 30 14.5835 30 15.1386C30 15.6936 29.7818 16.226 29.3935 16.6185L20.0719 26.0383C19.6813 26.4196 19.158 26.6306 18.6149 26.6259C18.0717 26.6211 17.5522 26.4009 17.1681 26.0128C16.7841 25.6247 16.5662 25.0997 16.5615 24.5508C16.5568 24.002 16.7656 23.4732 17.1429 23.0784L22.7503 17.2319H3.07146C2.52207 17.2319 1.99519 17.0113 1.60672 16.6188C1.21824 16.2262 1 15.6938 1 15.1386C1 14.5834 1.21824 14.051 1.60672 13.6584C1.99519 13.2658 2.52207 13.0453 3.07146 13.0453H22.7503L17.1429 7.19874C16.7546 6.80619 16.5364 6.27385 16.5364 5.71879C16.5364 5.16372 16.7546 4.63138 17.1429 4.23883Z" fill="white"/>
</svg>
