<svg width="114" height="92" viewBox="0 0 114 92" fill="none" xmlns="http://www.w3.org/2000/svg">
<path d="M53.8219 27.0675L44.5013 17.7131C43.6088 16.8206 43.1625 15.7706 43.1625 14.5631C43.1625 13.3556 43.6182 12.2944 44.5294 11.3794L53.85 2.03065C54.7388 1.13815 55.7925 0.691895 57.0113 0.691895C58.23 0.691895 59.2988 1.14752 60.2175 2.05877L69.5325 11.4075C70.425 12.3 70.8713 13.35 70.8713 14.5575C70.8713 15.765 70.4157 16.8263 69.5044 17.7413L60.1838 27.09C59.295 27.9825 58.2413 28.4288 57.0225 28.4288C55.8038 28.4288 54.735 27.975 53.8163 27.0675M5.40755 91.0406C4.1213 91.0406 3.04317 90.6056 2.17317 89.7356C1.29942 88.8619 0.862549 87.7819 0.862549 86.4956V71.3475C0.862549 69.0975 1.60505 67.1663 3.09005 65.5538C4.5713 63.9375 6.39005 63.0563 8.5463 62.91H24.8025C26.3175 62.91 27.7557 63.2719 29.1169 63.9956C30.4819 64.7156 31.6069 65.7656 32.4919 67.1456C35.3569 71.1581 38.925 74.2707 43.1963 76.4831C47.4713 78.6881 52.0744 79.7906 57.0057 79.7906C61.9707 79.7906 66.6038 78.6863 70.905 76.4775C75.21 74.2725 78.7838 71.16 81.6263 67.14C82.5563 65.7638 83.6907 64.7156 85.0294 63.9956C86.3644 63.2756 87.7575 62.9156 89.2088 62.9156H105.465C107.644 63.0581 109.487 63.9375 110.994 65.5538C112.502 67.1663 113.256 69.0975 113.256 71.3475V86.4956C113.256 87.7819 112.821 88.8619 111.951 89.7356C111.077 90.6056 109.997 91.0406 108.711 91.0406H84.0507C82.7607 91.0406 81.6807 90.6056 80.8107 89.7356C79.9369 88.8619 79.5 87.7819 79.5 86.4956V77.3775C76.3613 79.9388 72.8682 81.9188 69.0207 83.3175C65.1732 84.7163 61.1569 85.4156 56.9719 85.4156C52.8844 85.4156 48.9469 84.7256 45.1594 83.3456C41.3644 81.9694 37.8469 80.0044 34.6069 77.4506V86.4956C34.6069 87.7819 34.1719 88.8619 33.3019 89.7356C32.4319 90.6094 31.3519 91.0444 30.0619 91.0406H5.40755ZM15.2625 52.9594C11.4338 52.9594 8.13005 51.5719 5.3513 48.7969C2.5763 46.0219 1.1888 42.7181 1.1888 38.8856C1.1888 34.9781 2.5763 31.6594 5.3513 28.9294C8.1263 26.2031 11.43 24.84 15.2625 24.84C19.17 24.84 22.4888 26.2031 25.2188 28.9294C27.9488 31.6594 29.3138 34.9781 29.3138 38.8856C29.3138 42.7181 27.9488 46.0219 25.2188 48.7969C22.4888 51.5719 19.17 52.9594 15.2625 52.9594ZM98.7713 52.9594C94.9426 52.9594 91.6407 51.5719 88.8657 48.7969C86.0869 46.0219 84.6975 42.7181 84.6975 38.8856C84.6975 34.9781 86.085 31.6594 88.86 28.9294C91.635 26.2031 94.9388 24.84 98.7713 24.84C102.679 24.84 105.998 26.2031 108.728 28.9294C111.458 31.6594 112.823 34.9781 112.823 38.8856C112.823 42.7181 111.458 46.0219 108.728 48.7969C105.998 51.5719 102.679 52.9594 98.7713 52.9594Z" fill="#001AAD"/>
</svg>
