<svg width="32" height="32" viewBox="0 0 32 32" fill="none" xmlns="http://www.w3.org/2000/svg">
<path d="M20.6559 10H20.6666M24.6559 10H24.6666M29.3332 9.71071C29.3332 13.2334 26.3479 16.0894 22.6666 16.0894C22.2328 16.0894 21.803 16.0494 21.3772 15.9694C21.0706 15.912 20.9172 15.884 20.8106 15.9C20.7039 15.916 20.5519 15.996 20.2506 16.1574C19.3878 16.6172 18.3949 16.7718 17.4332 16.596C17.8008 16.1418 18.0501 15.6035 18.1586 15.0294C18.2252 14.676 18.0599 14.3334 17.8119 14.0827C16.6548 12.9215 16.0035 11.35 15.9999 9.71071C15.9999 6.18937 18.9852 3.33337 22.6666 3.33337C26.3479 3.33337 29.3332 6.18937 29.3332 9.71071ZM10.0026 28.6667H6.29058C5.85991 28.6667 5.42658 28.6054 5.03058 28.436C3.74258 27.8827 3.08791 27.1507 2.78391 26.6934C2.70141 26.5667 2.66087 26.4173 2.66805 26.2662C2.67523 26.1152 2.72976 25.9703 2.82391 25.852C4.31724 23.868 7.78391 22.6707 10.0092 22.6707C12.2332 22.6707 15.6946 23.868 17.1879 25.852C17.3759 26.1014 17.4012 26.4334 17.2279 26.6934C16.9226 27.1507 16.2679 27.8827 14.9799 28.436C14.5797 28.5971 14.1512 28.6755 13.7199 28.6667H10.0026ZM13.7146 15.7187C13.7139 16.2048 13.6174 16.6859 13.4308 17.1347C13.2441 17.5835 12.9709 17.9912 12.6267 18.3344C12.2825 18.6776 11.8741 18.9496 11.4248 19.135C10.9754 19.3204 10.494 19.4154 10.0079 19.4147C9.02672 19.4154 8.08539 19.0265 7.39083 18.3334C6.69627 17.6404 6.30532 16.6999 6.30391 15.7187C6.30443 15.2326 6.40069 14.7514 6.58719 14.3026C6.77368 13.8537 7.04676 13.446 7.39083 13.1026C7.7349 12.7593 8.14323 12.4871 8.5925 12.3016C9.04177 12.1161 9.52318 12.0208 10.0092 12.0214C10.4953 12.0208 10.9767 12.1161 11.426 12.3016C11.8753 12.4871 12.2836 12.7593 12.6277 13.1026C12.9717 13.446 13.2448 13.8537 13.4313 14.3026C13.6178 14.7514 13.7141 15.2326 13.7146 15.7187Z" stroke="#00041A" stroke-width="1.5" stroke-linecap="round" stroke-linejoin="round"/>
</svg>
