<svg width="51" height="50" viewBox="0 0 51 50" fill="none" xmlns="http://www.w3.org/2000/svg">
<path d="M42.5251 14.0625H38.648L29.1355 23.5708C29.4631 24.4058 29.4932 25.3281 29.2208 26.1827C28.9484 27.0373 28.39 27.772 27.6396 28.2633C26.8891 28.7546 25.9924 28.9725 25.1002 28.8804C24.208 28.7883 23.3747 28.3918 22.7404 27.7575C22.1062 27.1233 21.7097 26.29 21.6176 25.3978C21.5255 24.5056 21.7434 23.6088 22.2347 22.8584C22.726 22.108 23.4607 21.5496 24.3153 21.2771C25.1699 21.0047 26.0922 21.0348 26.9272 21.3625L36.4376 11.852V7.97497C36.4378 7.45617 36.6438 6.95866 37.0105 6.59164L40.6146 2.98747C40.6813 2.92034 40.7651 2.87265 40.8568 2.84953C40.9486 2.82641 41.0449 2.82872 41.1355 2.85622C41.3209 2.91039 41.4584 3.06455 41.4959 3.25414L42.4542 8.04788L47.2459 9.00622C47.4334 9.04372 47.5876 9.18122 47.6417 9.36663C47.6691 9.4567 47.6715 9.5525 47.6488 9.64384C47.626 9.73519 47.579 9.81866 47.5126 9.88538L43.9063 13.4895C43.5398 13.8557 43.0431 14.0617 42.5251 14.0625Z" fill="#001AAD"/>
<path d="M5.96875 25C5.96875 30.18 8.0265 35.1479 11.6893 38.8107C15.3521 42.4735 20.32 44.5313 25.5 44.5313C28.0649 44.5313 30.6046 44.0261 32.9743 43.0445C35.3439 42.063 37.497 40.6243 39.3107 38.8107C41.1243 36.997 42.563 34.8439 43.5445 32.4743C44.5261 30.1047 45.0312 27.5649 45.0312 25C45.0312 23.1292 44.7687 21.3208 44.2792 19.6104C44.1818 19.2177 44.2407 18.8025 44.4432 18.4523C44.6458 18.1021 44.9764 17.8441 45.3653 17.7326C45.7542 17.6211 46.1713 17.6649 46.5286 17.8546C46.886 18.0444 47.1558 18.3654 47.2812 18.75C47.8521 20.7375 48.1562 22.8333 48.1562 25C48.1562 37.5125 38.0125 47.6563 25.5 47.6563C12.9875 47.6563 2.84375 37.5125 2.84375 25C2.84375 12.4875 12.9875 2.34376 25.5 2.34376C27.6146 2.34168 29.7167 2.63543 31.75 3.21668C31.9483 3.27229 32.1336 3.36654 32.2953 3.49401C32.457 3.62148 32.5919 3.77966 32.6923 3.95944C32.7926 4.13923 32.8565 4.33708 32.8801 4.54163C32.9038 4.74617 32.8868 4.95337 32.8301 5.15132C32.7734 5.34927 32.6781 5.53406 32.5498 5.69507C32.4214 5.85608 32.2625 5.99014 32.0822 6.08953C31.9019 6.18892 31.7037 6.25169 31.499 6.27422C31.2943 6.29676 31.0872 6.27862 30.8896 6.22084C29.1368 5.72055 27.3228 5.46741 25.5 5.46876C20.32 5.46876 15.3521 7.52651 11.6893 11.1893C8.0265 14.8522 5.96875 19.82 5.96875 25Z" fill="#001AAD"/>
<path d="M15.3439 25C15.3497 26.3798 15.6367 27.744 16.1873 29.0092C16.7379 30.2745 17.5407 31.4142 18.5465 32.3588C19.5523 33.3035 20.7401 34.0332 22.0373 34.5035C23.3345 34.9737 24.714 35.1747 26.0915 35.094C27.469 35.0134 28.8156 34.6528 30.0491 34.0343C31.2826 33.4159 32.3771 32.5525 33.2658 31.4969C34.1545 30.4413 34.8187 29.2157 35.2179 27.8949C35.6171 26.574 35.7429 25.1857 35.5876 23.8146C35.5439 23.5369 35.576 23.2526 35.6807 22.9917C35.7854 22.7308 35.9588 22.5031 36.1823 22.3327C36.4059 22.1623 36.6714 22.0555 36.9507 22.0237C37.23 21.9919 37.5127 22.0363 37.7689 22.1521C38.2918 22.3854 38.6439 22.8833 38.6897 23.4542C39.0132 26.1943 38.475 28.9671 37.1499 31.3872C35.8248 33.8073 33.7787 35.7544 31.2959 36.958C28.8131 38.1616 26.017 38.5618 23.2963 38.103C20.5756 37.6442 18.0654 36.3492 16.1147 34.3979C14.1645 32.4488 12.8691 29.9411 12.4083 27.2227C11.9475 24.5042 12.344 21.7097 13.5429 19.2267C14.7418 16.7438 16.6836 14.6954 19.099 13.3658C21.5145 12.0361 24.2839 11.4911 27.023 11.8062C27.2301 11.8255 27.4313 11.8858 27.6147 11.9838C27.7981 12.0817 27.9602 12.2153 28.0913 12.3767C28.2225 12.5381 28.3201 12.7241 28.3784 12.9237C28.4368 13.1233 28.4547 13.3326 28.4311 13.5392C28.4075 13.7458 28.3429 13.9456 28.2411 14.127C28.1393 14.3083 28.0023 14.4675 27.8382 14.5952C27.6741 14.7229 27.4861 14.8166 27.2853 14.8707C27.0845 14.9248 26.8749 14.9383 26.6689 14.9104C25.246 14.7459 23.8044 14.8842 22.4388 15.3161C21.0731 15.7481 19.8143 16.4639 18.7448 17.4167C17.6753 18.3695 16.8194 19.5377 16.2333 20.8446C15.6472 22.1516 15.3441 23.5677 15.3439 25Z" fill="#001AAD"/>
</svg>
