<svg width="36" height="44" viewBox="0 0 36 44" fill="none" xmlns="http://www.w3.org/2000/svg">
<path d="M31.8214 17.2401C31.8214 22.4001 29.2814 26.3701 25.4173 28.9841C24.5173 29.5921 24.0673 29.8961 23.8453 30.2441C23.6253 30.5881 23.5473 31.0441 23.3973 31.9521L23.2773 32.6581C23.0133 34.2541 22.8793 35.0521 22.3193 35.5261C21.7593 36.0001 20.9513 36.0001 19.3333 36.0001H14.1093C12.4913 36.0001 11.6833 36.0001 11.1233 35.5261C10.5633 35.0521 10.4313 34.2541 10.1633 32.6581L10.0473 31.9521C9.89531 31.0461 9.82131 30.5921 9.60131 30.2481C9.38131 29.9041 8.92931 29.5961 8.0273 28.9801C4.2053 26.3661 1.82129 22.3981 1.82129 17.2401C1.82129 8.82603 8.5373 2.00001 16.8213 2.00001C17.8291 1.99894 18.8343 2.1008 19.8213 2.30401" stroke="#001AAD" stroke-width="3.5" stroke-linecap="round" stroke-linejoin="round"/>
<path d="M20.8213 36.0001V38.0001C20.8213 39.8861 20.8213 40.8281 20.2353 41.4141C19.6493 42.0001 18.7073 42.0001 16.8213 42.0001C14.9353 42.0001 13.9933 42.0001 13.4073 41.4141C12.8213 40.8281 12.8213 39.8861 12.8213 38.0001V36.0001M26.8213 2L27.3373 3.394C28.0133 5.22201 28.3513 6.13601 29.0173 6.80201C29.6853 7.47001 30.5993 7.80801 32.4273 8.48401L33.8213 9.00001L32.4273 9.51601C30.5993 10.192 29.6853 10.53 29.0193 11.196C28.3513 11.864 28.0133 12.778 27.3373 14.606L26.8213 16L26.3053 14.606C25.6293 12.778 25.2913 11.864 24.6253 11.198C23.9573 10.53 23.0433 10.192 21.2153 9.51601L19.8213 9.00001L21.2153 8.48401C23.0433 7.80801 23.9573 7.47001 24.6233 6.80401C25.2913 6.13601 25.6293 5.22201 26.3053 3.394L26.8213 2Z" stroke="#001AAD" stroke-width="3.5" stroke-linecap="round" stroke-linejoin="round"/>
</svg>
