<svg width="54" height="53" viewBox="0 0 54 53" fill="none" xmlns="http://www.w3.org/2000/svg">
<path d="M46.8751 48.5834V16.5294C46.8751 14.1047 46.8751 12.8945 46.1772 11.8698C45.4816 10.8474 44.1986 10.176 41.6303 8.83116L38.362 7.12191C34.334 5.01075 32.3177 3.95516 30.7653 4.60883C29.2084 5.2625 29.2084 7.16608 29.2084 10.9688V19.875M49.0834 48.5834H4.91675M46.8751 17.6667H42.4584M46.8751 24.2917H42.4584M46.8751 30.9167H42.4584" stroke="#001AAD" stroke-width="3.3125" stroke-linecap="round" stroke-linejoin="round"/>
<path d="M25.8959 28.7083H28.1042M25.8959 35.3333H28.1042M18.1667 28.7083C18.1667 24.5434 18.1667 22.4632 19.4608 21.1691C20.7549 19.875 22.8352 19.875 27.0001 19.875C31.165 19.875 33.2452 19.875 34.5393 21.1691C35.8334 22.4632 35.8334 24.5434 35.8334 28.7083V48.5833H18.1667V28.7083Z" stroke="#001AAD" stroke-width="3.3125" stroke-linecap="round" stroke-linejoin="round"/>
<path d="M8.22925 35.3333C10.0587 35.3333 11.5417 33.3559 11.5417 30.9167C11.5417 28.4774 10.0587 26.5 8.22925 26.5C6.3998 26.5 4.91675 28.4774 4.91675 30.9167C4.91675 33.3559 6.3998 35.3333 8.22925 35.3333Z" stroke="#001AAD" stroke-width="3.3125" stroke-linecap="round" stroke-linejoin="round"/>
<path d="M8.22925 35.3334V48.5834" stroke="#001AAD" stroke-width="3.3125" stroke-linecap="round" stroke-linejoin="round"/>
</svg>
