<svg width="32" height="32" viewBox="0 0 32 32" fill="none" xmlns="http://www.w3.org/2000/svg">
<g clip-path="url(#clip0_10_653)">
<path d="M29 0.750116H3C2.41008 0.744112 1.84187 0.972377 1.42005 1.38482C0.998227 1.79727 0.757253 2.36021 0.75 2.95012V29.0551C0.758564 29.6442 1.00012 30.2058 1.42179 30.6172C1.84347 31.0285 2.41093 31.2561 3 31.2501H29C29.59 31.2548 30.1578 31.0258 30.5794 30.6131C31.001 30.2003 31.2421 29.6375 31.25 29.0476V2.94262C31.2395 2.35444 30.9972 1.79418 30.5759 1.38363C30.1546 0.973077 29.5883 0.74541 29 0.750116Z" fill="#0076B2"/>
<path d="M5.26503 12.1826H9.79253V26.7501H5.26503V12.1826ZM7.53003 4.93262C8.04931 4.93262 8.55693 5.08663 8.98866 5.37518C9.42039 5.66373 9.75685 6.07385 9.95545 6.55365C10.1541 7.03345 10.2059 7.56138 10.1044 8.07065C10.0029 8.57992 9.75266 9.04764 9.3853 9.41466C9.01794 9.78167 8.54997 10.0315 8.04061 10.1325C7.53124 10.2335 7.00337 10.1811 6.52375 9.98208C6.04414 9.78302 5.63434 9.44618 5.34621 9.01417C5.05807 8.58216 4.90454 8.0744 4.90503 7.55512C4.90569 6.85936 5.18255 6.19232 5.67476 5.70058C6.16697 5.20884 6.83427 4.93262 7.53003 4.93262ZM12.6325 12.1826H16.9725V14.1826H17.0325C17.6375 13.0376 19.1125 11.8301 21.315 11.8301C25.9 11.8201 26.75 14.8376 26.75 18.7501V26.7501H22.2225V19.6626C22.2225 17.9751 22.1925 15.8026 19.87 15.8026C17.5475 15.8026 17.1525 17.6426 17.1525 19.5526V26.7501H12.6325V12.1826Z" fill="white"/>
</g>
<defs>
<clipPath id="clip0_10_653">
<rect width="32" height="32" fill="white"/>
</clipPath>
</defs>
</svg>
