<svg width="68" height="68" viewBox="0 0 68 68" fill="none" xmlns="http://www.w3.org/2000/svg">
<path d="M18.1332 13.4868C22.3558 9.34868 28.0408 7.04416 33.953 7.07402C39.8651 7.10388 45.5265 9.4657 49.7071 13.6463C53.8877 17.8268 56.2495 23.4883 56.2793 29.4004C56.3092 35.3125 54.0047 40.9976 49.8666 45.2201L38.0062 57.0805C36.9436 58.1428 35.5025 58.7396 33.9999 58.7396C32.4973 58.7396 31.0562 58.1428 29.9936 57.0805L18.1332 45.2201C13.9254 41.0119 11.5615 35.3045 11.5615 29.3535C11.5615 23.4024 13.9254 17.695 18.1332 13.4868Z" stroke="#00041A" stroke-width="1.5" stroke-linejoin="round"/>
<path d="M34 37.8535C38.6944 37.8535 42.5 34.0479 42.5 29.3535C42.5 24.6591 38.6944 20.8535 34 20.8535C29.3056 20.8535 25.5 24.6591 25.5 29.3535C25.5 34.0479 29.3056 37.8535 34 37.8535Z" stroke="#00041A" stroke-width="1.5" stroke-linecap="round" stroke-linejoin="round"/>
</svg>
