<svg width="26" height="26" viewBox="0 0 26 26" fill="none" xmlns="http://www.w3.org/2000/svg">
<path d="M8.66659 3.25C9.20825 3.25 11.3749 8.125 11.3749 8.66667C11.3749 9.75 9.74992 10.8333 9.20825 11.9167C8.66659 13 9.74992 14.0833 10.8333 15.1667C11.2558 15.5892 12.9999 17.3333 14.0833 16.7917C15.1666 16.25 16.2499 14.625 17.3333 14.625C17.8749 14.625 22.7499 16.7917 22.7499 17.3333C22.7499 19.5 21.1249 21.125 19.4999 21.6667C17.8749 22.2083 16.7916 22.2083 14.6249 21.6667C12.4583 21.125 10.8333 20.5833 8.12492 17.875C5.41659 15.1667 4.87492 13.5417 4.33325 11.375C3.79159 9.20833 3.79159 8.125 4.33325 6.5C4.87492 4.875 6.49992 3.25 8.66659 3.25Z" stroke="#00041A" stroke-width="2.16667" stroke-linecap="round" stroke-linejoin="round"/>
</svg>
