<svg width="109" height="123" viewBox="0 0 109 123" fill="none" xmlns="http://www.w3.org/2000/svg">
<path fill-rule="evenodd" clip-rule="evenodd" d="M57.5606 0.857533C62.0044 0.520033 65.7169 3.04566 67.59 6.42628L74.4525 18.8575C84.2513 18.2275 91.7888 21.85 97.2225 26.7213C103.179 32.065 106.515 38.7813 108.079 42.6063C109.766 46.7294 108.518 51.0438 105.885 53.8675L96.1763 64.24C99.81 73.3638 98.6906 81.6494 95.7375 88.3263C92.4975 95.6388 87.1369 100.887 83.9813 103.559C80.5838 106.439 76.095 106.585 72.5963 104.948L59.7319 98.9238C52.1775 105.196 43.9481 106.692 36.6919 105.944C28.7325 105.128 22.0838 101.652 18.5681 99.475C14.7769 97.1294 13.2525 92.905 13.7306 89.0744L15.4856 74.9782C7.18314 69.73 3.21751 62.3669 1.68189 55.2344C0.00563973 47.4157 1.25439 40.0188 2.23877 35.9969C3.29627 31.6713 6.84002 28.9094 10.6313 28.1838L24.5813 25.495C27.0056 15.9832 32.7825 9.93066 39.0938 6.27441C46.0125 2.25816 53.4375 1.16128 57.5606 0.857533ZM57.8813 12.1132C54.5063 12.4169 49.32 13.3507 44.7413 16C40.1625 18.6607 36.0619 23.0763 34.9369 31.0863C34.774 32.2477 34.2521 33.3292 33.4442 34.1795C32.6363 35.0297 31.5829 35.6061 30.4313 35.8282L13.05 39.175C12.2906 42.4769 11.5706 47.6969 12.6844 52.8719C13.7925 58.0469 16.7344 63.3119 24.0019 66.8557C25.0566 67.3699 25.9241 68.2012 26.4829 69.233C27.0417 70.2649 27.2638 71.4457 27.1181 72.61L24.9244 90.1769C27.8325 91.9207 32.5744 94.21 37.8394 94.7557C43.11 95.2957 49.0219 94.1369 54.6413 88.315C55.4557 87.472 56.5131 86.9044 57.6658 86.6916C58.8185 86.4788 60.0089 86.6314 61.0706 87.1282L77.1019 94.6375C79.6613 92.41 83.3063 88.6132 85.4494 83.77C87.5925 78.9325 88.3125 72.9419 84.5156 65.8038C83.9649 64.768 83.7517 63.5859 83.9061 62.423C84.0604 61.26 84.5744 60.1745 85.3763 59.3182L97.47 46.3919C96.1425 43.2757 93.6563 38.6294 89.7075 35.0969C85.77 31.5644 80.3025 29.0332 72.3375 30.4338C71.1821 30.6388 69.9915 30.4774 68.9324 29.972C67.8733 29.4667 66.9988 28.6428 66.4313 27.6157L57.8813 12.1132Z" fill="#001AAD"/>
</svg>
