<svg width="77" height="76" viewBox="0 0 77 76" fill="none" xmlns="http://www.w3.org/2000/svg">
<path d="M45.2566 17.75C45.2566 15.9598 44.5453 14.2429 43.2792 12.977C42.0131 11.7112 40.2958 11 38.5053 11C36.7147 11 34.9975 11.7112 33.7314 12.977C32.4653 14.2429 31.754 15.9598 31.754 17.75C31.754 19.5402 32.4653 21.2571 33.7314 22.523C34.9975 23.7888 36.7147 24.5 38.5053 24.5C40.2958 24.5 42.0131 23.7888 43.2792 22.523C44.5453 21.2571 45.2566 19.5402 45.2566 17.75ZM35.1296 27.875C31.4058 27.875 28.3783 30.902 28.3783 34.625V39.6875C28.3783 41.5543 29.8868 43.0625 31.754 43.0625H31.9438L33.1148 53.5566C33.3046 55.2652 34.7499 56.5625 36.4693 56.5625H40.5518C42.2712 56.5625 43.7164 55.2652 43.9063 53.5566L45.0667 43.0625H45.2566C47.1238 43.0625 48.6323 41.5543 48.6323 39.6875V34.625C48.6323 30.902 45.6047 27.875 41.8809 27.875H35.1296ZM25.4562 52.5758C26.8276 52.3227 27.7454 51.0043 27.4922 49.6332C27.239 48.2621 25.9204 47.3445 24.549 47.5977C21.1312 48.2199 18.1247 49.0953 15.8989 50.2133C14.7913 50.7723 13.7575 51.4473 12.9663 52.2805C12.1751 53.1348 11.5 54.2949 11.5 55.7188C11.5 57.9758 13.1351 59.5262 14.5697 60.4648C16.1204 61.4773 18.188 62.2895 20.5193 62.9328C25.2347 64.2301 31.5852 65 38.5053 65C45.4254 65 51.7758 64.2301 56.4807 62.9328C58.812 62.2895 60.8901 61.4773 62.4303 60.4648C63.8755 59.5262 65.5 57.9758 65.5 55.7188C65.5 54.2949 64.8249 53.1348 64.0232 52.2805C63.232 51.4473 62.1982 50.7723 61.0905 50.2133C58.8753 49.0953 55.8688 48.2199 52.4404 47.5977C51.0691 47.3445 49.7504 48.2621 49.4973 49.6332C49.2441 51.0043 50.1618 52.3227 51.5332 52.5758C54.719 53.1559 57.198 53.9258 58.812 54.7379C59.1495 54.9066 59.4238 55.0648 59.6453 55.2125C60.0251 55.4656 60.0251 55.9719 59.6453 56.225C58.717 56.8262 57.2085 57.4695 55.1093 58.0496C50.9847 59.1992 45.0984 59.9375 38.5053 59.9375C31.9122 59.9375 26.0259 59.1992 21.8696 58.0496C19.7704 57.4695 18.2619 56.8262 17.3336 56.225C16.9538 55.9719 16.9538 55.4656 17.3336 55.2125C17.5551 55.0648 17.8399 54.9066 18.1669 54.7379C19.7809 53.9258 22.2599 53.1664 25.4457 52.5758H25.4562Z" fill="#001AAD"/>
</svg>
