<svg width="31" height="33" viewBox="0 0 31 33" fill="none" xmlns="http://www.w3.org/2000/svg">
<path d="M27.6666 20.2426V8.57593L18.4999 2.16427L9.33326 8.57427V13.0609H7.66659V7.77593L18.4999 0.0509338L29.3333 7.77426V20.2409L27.6666 20.2426ZM19.4933 9.69593H20.8399V8.34927H19.4933V9.69593ZM16.1599 9.69593H17.5066V8.34927H16.1599V9.69593ZM19.4933 13.0293H20.8399V11.6826H19.4933V13.0293ZM16.1599 13.0293H17.5066V11.6826H16.1599V13.0293ZM6.67326 26.7159L19.2816 30.3943L29.2633 27.3109C29.2299 26.8054 29.0788 26.4409 28.8099 26.2176C28.5388 25.9943 28.2327 25.8826 27.8916 25.8826H19.9833C19.2788 25.8826 18.6399 25.8548 18.0666 25.7993C17.4933 25.7437 16.9071 25.6115 16.3083 25.4026L12.6583 24.2059L13.2216 22.5593L16.5966 23.7793C17.1321 23.9826 17.741 24.1048 18.4233 24.1459C19.1044 24.1859 20.0377 24.2093 21.2233 24.2159C21.2233 23.6959 21.1277 23.2759 20.9366 22.9559C20.7455 22.6359 20.4716 22.4126 20.1149 22.2859L10.5249 18.7659C10.4616 18.7448 10.4027 18.7293 10.3483 18.7193C10.2938 18.7093 10.2355 18.7037 10.1733 18.7026H6.67326V26.7159ZM0.0065918 30.6259V17.0359H10.1333C10.2888 17.0359 10.4488 17.0537 10.6133 17.0893C10.7777 17.1248 10.9305 17.1659 11.0716 17.2126L20.7033 20.7409C21.2999 20.9676 21.8133 21.3748 22.2433 21.9626C22.6744 22.5504 22.8899 23.3015 22.8899 24.2159H27.8899C28.8944 24.2159 29.6633 24.5298 30.1966 25.1576C30.731 25.7865 30.9983 26.5837 30.9983 27.5493V28.5743L19.3649 32.1643L6.67159 28.4643V30.6259H0.0065918ZM1.67326 28.9593H5.00659V18.7026H1.67326V28.9593Z" fill="#00001A"/>
</svg>
